<?xml version="1.0" encoding="UTF-8" standalone="no"?>
<svg
   xmlns:dc="http://purl.org/dc/elements/1.1/"
   xmlns:cc="http://creativecommons.org/ns#"
   xmlns:rdf="http://www.w3.org/1999/02/22-rdf-syntax-ns#"
   xmlns:svg="http://www.w3.org/2000/svg"
   xmlns="http://www.w3.org/2000/svg"
   xmlns:sodipodi="http://sodipodi.sourceforge.net/DTD/sodipodi-0.dtd"
   xmlns:inkscape="http://www.inkscape.org/namespaces/inkscape"
   version="1.0"
   id="svg2"
   height="295.29752"
   width="494.2381"
   inkscape:version="0.91 r13725"
   sodipodi:docname="USB_flash_drive.svg"
   inkscape:export-filename="/mnt/Philip/Dev/C++/CapacityTester/res/USB_flash_drive.png"
   inkscape:export-xdpi="99.967346"
   inkscape:export-ydpi="99.967346">
  <sodipodi:namedview
     pagecolor="#ffffff"
     bordercolor="#666666"
     borderopacity="1"
     objecttolerance="10"
     gridtolerance="10"
     guidetolerance="10"
     inkscape:pageopacity="0"
     inkscape:pageshadow="2"
     inkscape:window-width="1280"
     inkscape:window-height="969"
     id="namedview4415"
     showgrid="false"
     inkscape:zoom="0.56511549"
     inkscape:cx="250.8894"
     inkscape:cy="453.57235"
     inkscape:window-x="0"
     inkscape:window-y="31"
     inkscape:window-maximized="1"
     inkscape:current-layer="svg2" />
  <defs
     id="defs4" />
  <metadata
     id="metadata7">
    <rdf:RDF>
      <cc:Work
         rdf:about="">
        <dc:format>image/svg+xml</dc:format>
        <dc:type
           rdf:resource="http://purl.org/dc/dcmitype/StillImage" />
        <dc:title />
      </cc:Work>
    </rdf:RDF>
  </metadata>
  <g
     transform="translate(-148.98696,-296.06243)"
     style="display:inline"
     id="layer2">
    <path
       d="M 241.93906,436.18502 L 525.73861,298.77745 C 543.9084,291.35855 566.21843,302.2398 587.99513,313.52486 C 603.59367,321.60829 636.12539,335.30306 640.53413,350.1285 C 642.44579,356.20723 643.11662,363.04433 642.90539,374.33211 C 642.85808,376.86007 638.63678,379.69128 636.95456,380.70322 C 636.95456,380.70322 357.30705,531.81973 354.48386,533.51364 C 351.66067,535.20756 346.01429,532.38437 346.01429,532.38437 L 330.44249,524.47693"
       style="fill:none;fill-rule:evenodd;stroke:#000000;stroke-width:0.56463766px;stroke-linecap:round;stroke-linejoin:round;stroke-opacity:1"
       id="path2185" />
    <path
       id="rect2171"
       d="M 230.41249,556.89957 L 330.37197,503.84846 L 330.45486,536.45464 L 231.07016,590.27471 L 230.41249,556.89957 z "
       style="opacity:1;fill:none;fill-opacity:1;fill-rule:evenodd;stroke:#000000;stroke-width:0.79049265;stroke-linecap:round;stroke-linejoin:round;stroke-miterlimit:4;stroke-opacity:1" />
    <path
       id="rect2174"
       d="M 250.20705,457.3668 L 330.36335,503.84155 L 230.46468,556.88421 L 150.31777,505.13076 C 149.81821,504.77197 150.04169,504.42652 150.67803,504.09247 L 250.20705,457.3668 z "
       style="opacity:1;fill:none;fill-opacity:1;fill-rule:evenodd;stroke:#000000;stroke-width:0.79049265;stroke-linecap:round;stroke-linejoin:round;stroke-miterlimit:4;stroke-opacity:1" />
    <path
       id="path2177"
       d="M 152.93709,524.84664 C 152.77063,528.20214 152.72955,533.94624 152.72797,535.58597 C 152.7259,537.67093 153.74981,539.43238 155.51893,540.56982 C 159.2872,542.9926 210.23784,576.62251 220.85457,584.10244 C 223.03553,585.49763 226.88769,589.01287 227.08704,584.02902 C 227.2864,579.04516 227.48575,574.85873 227.48575,574.85873 C 227.48575,573.05834 226.48898,571.46971 222.70125,569.07746 C 218.91353,566.68521 161.07629,529.49339 161.07629,529.49339 C 160.03326,528.69041 160.02984,528.09198 160.79589,527.34887 L 173.46079,520.23571 L 166.44772,515.79536 C 166.44772,515.79536 156.58125,520.5918 154.92086,521.63119 C 153.29985,522.64592 153.03913,522.9711 152.93709,524.84664 z "
       style="opacity:1;fill:none;fill-rule:evenodd;stroke:#000000;stroke-width:0.56463766px;stroke-linecap:butt;stroke-linejoin:miter;stroke-opacity:1" />
    <path
       id="path2183"
       d="M 149.26928,537.79656 L 149.30125,506.75709 C 149.26281,504.8715 150.11606,505.21158 151.18862,505.9716 L 230.46258,556.89685 L 230.96298,588.47113 C 231.13065,590.90299 229.85771,591.93431 227.60602,590.24898 L 149.92549,538.96053 C 149.50921,538.66882 149.27696,538.42503 149.26928,537.79656 z "
       style="opacity:1;fill:none;fill-rule:evenodd;stroke:#000000;stroke-width:0.56463766px;stroke-linecap:butt;stroke-linejoin:miter;stroke-opacity:1" />
    <path
       transform="matrix(0.3715402,0.1656943,-0.1703874,0.363188,295.33399,280.333)"
       d="m 87.616277,521.52338 a 15.713002,8.1823463 0 0 1 -15.713002,8.18234 15.713002,8.1823463 0 0 1 -15.713003,-8.18234 15.713002,8.1823463 0 0 1 15.713003,-8.18235 15.713002,8.1823463 0 0 1 15.713002,8.18235 z"
       id="path3158"
       style="opacity:1;fill:none;fill-opacity:1;fill-rule:evenodd;stroke:#000000;stroke-width:1.39999998;stroke-linecap:round;stroke-linejoin:miter;stroke-miterlimit:4;stroke-dasharray:none;stroke-opacity:1" />
    <rect
       transform="matrix(0.7952342,0.6063024,-0.6625625,0.7490067,0,0)"
       ry="0.89520454"
       y="310.76682"
       x="480.39978"
       height="4.412261"
       width="7.4336939"
       id="rect3166"
       style="opacity:1;fill:none;fill-opacity:1;fill-rule:evenodd;stroke:#000000;stroke-width:0.48417726;stroke-linecap:round;stroke-linejoin:miter;stroke-miterlimit:4;stroke-dasharray:none;stroke-opacity:1" />
    <rect
       style="opacity:1;fill:none;fill-opacity:1;fill-rule:evenodd;stroke:#000000;stroke-width:0.48417726;stroke-linecap:round;stroke-linejoin:miter;stroke-miterlimit:4;stroke-dasharray:none;stroke-opacity:1"
       id="rect3168"
       width="7.4336939"
       height="4.412261"
       x="535.42096"
       y="306.88953"
       ry="0.8952046"
       transform="matrix(0.7952342,0.6063024,-0.6625625,0.7490067,0,0)" />
    <rect
       style="opacity:1;fill:none;fill-opacity:1;fill-rule:evenodd;stroke:#000000;stroke-width:0.48907247;stroke-linecap:round;stroke-linejoin:miter;stroke-miterlimit:4;stroke-dasharray:none;stroke-opacity:1;display:inline"
       id="rect3200"
       width="16.721855"
       height="21.408649"
       x="-390.33688"
       y="629.5238"
       transform="matrix(0.8899437,-0.4560704,0.8670722,0.4981824,0,0)"
       ry="2.5239592" />
    <path
       id="path3202"
       d="M 213.33615,484.71023 C 212.53459,484.69102 211.71744,484.85014 211.09524,485.169 L 200.70238,490.48012 C 199.458,491.11783 199.43705,492.20088 200.64945,492.89747 L 206.9134,496.49704 L 217.37684,491.39765 L 217.37684,486.33356 L 215.54177,485.27487 C 214.93557,484.92657 214.13771,484.72944 213.33615,484.71023 z "
       style="opacity:1;fill:none;fill-opacity:1;fill-rule:evenodd;stroke:#000000;stroke-width:0.56463766;stroke-linecap:round;stroke-linejoin:round;stroke-miterlimit:4;stroke-dasharray:none;stroke-opacity:1;display:inline" />
    <path
       id="path3204"
       d="M 217.37684,486.33356 L 217.37684,491.39765 L 226.79427,497.25018 L 229.65771,495.82653 C 230.90209,495.18882 230.94069,494.12342 229.72829,493.42682 L 217.37684,486.33356 z "
       style="opacity:1;fill:none;fill-opacity:1;fill-rule:evenodd;stroke:#000000;stroke-width:0.56463766;stroke-linecap:round;stroke-linejoin:round;stroke-miterlimit:4;stroke-dasharray:none;stroke-opacity:1;display:inline" />
    <rect
       ry="2.5239592"
       transform="matrix(0.8899437,-0.4560704,0.8670722,0.4981824,0,0)"
       y="679.33331"
       x="-393.27026"
       height="21.408649"
       width="16.721855"
       id="rect3206"
       style="opacity:1;fill:none;fill-opacity:1;fill-rule:evenodd;stroke:#000000;stroke-width:0.48907247;stroke-linecap:round;stroke-linejoin:miter;stroke-miterlimit:4;stroke-dasharray:none;stroke-opacity:1;display:inline" />
    <path
       style="opacity:1;fill:none;fill-opacity:1;fill-rule:evenodd;stroke:#000000;stroke-width:0.56463766;stroke-linecap:round;stroke-linejoin:round;stroke-miterlimit:4;stroke-dasharray:none;stroke-opacity:1;display:inline"
       d="M 253.91405,510.86231 C 253.11249,510.8431 252.29534,511.00222 251.67315,511.32107 L 241.28028,516.6322 C 240.0359,517.26991 240.01495,518.35296 241.22735,519.04955 L 247.4913,522.64912 L 257.95474,517.54973 L 257.95474,512.48564 L 256.11967,511.42694 C 255.51347,511.07865 254.71561,510.88152 253.91405,510.86231 z "
       id="path3208" />
    <path
       style="opacity:1;fill:none;fill-opacity:1;fill-rule:evenodd;stroke:#000000;stroke-width:0.56463766;stroke-linecap:round;stroke-linejoin:round;stroke-miterlimit:4;stroke-dasharray:none;stroke-opacity:1;display:inline"
       d="M 257.95021,512.48628 L 257.95021,517.55038 L 267.36765,523.4029 L 270.23108,521.97925 C 271.47546,521.34154 271.51406,520.27614 270.30166,519.57954 L 257.95021,512.48628 z "
       id="path3212" />
    <path
       id="path3214"
       d="M 230.82822,479.2098 C 229.51919,479.27644 228.51333,479.73062 228.12854,480.55081 C 227.94085,480.95089 227.9218,481.39994 228.04032,481.87418 C 228.84112,482.90081 230.16072,483.89632 231.79869,484.62679 C 235.02127,486.06395 238.26353,485.89664 239.03311,484.25625 C 239.22108,483.85557 239.22281,483.4079 239.10369,482.93288 C 238.30149,481.91275 236.99101,480.90632 235.36296,480.18027 C 233.75167,479.46169 232.13724,479.14316 230.82822,479.2098 z "
       style="opacity:1;fill:none;fill-opacity:1;fill-rule:evenodd;stroke:#000000;stroke-width:0.56552231;stroke-linecap:round;stroke-linejoin:miter;stroke-miterlimit:4;stroke-dasharray:none;stroke-opacity:1" />
    <path
       style="opacity:1;fill:none;fill-opacity:1;fill-rule:evenodd;stroke:#000000;stroke-width:1.39999998;stroke-linecap:round;stroke-linejoin:miter;stroke-miterlimit:4;stroke-dasharray:none;stroke-opacity:1"
       id="path3219"
       d="m 87.616277,521.52338 a 15.713002,8.1823463 0 0 1 -15.713002,8.18234 15.713002,8.1823463 0 0 1 -15.713003,-8.18234 15.713002,8.1823463 0 0 1 15.713003,-8.18235 15.713002,8.1823463 0 0 1 15.713002,8.18235 z"
       transform="matrix(0.3715402,0.1656943,-0.1703874,0.363188,336.70456,306.5235)" />
    <path
       style="opacity:1;fill:none;fill-opacity:1;fill-rule:evenodd;stroke:#000000;stroke-width:0.56552231;stroke-linecap:round;stroke-linejoin:miter;stroke-miterlimit:4;stroke-dasharray:none;stroke-opacity:1"
       d="M 272.19878,505.4003 C 270.88975,505.46694 269.8839,505.92112 269.49911,506.74132 C 269.31142,507.14139 269.29236,507.59045 269.41088,508.06469 C 270.21169,509.09131 271.53128,510.08682 273.16925,510.81729 C 276.39183,512.25445 279.63409,512.08715 280.40367,510.44675 C 280.59164,510.04607 280.59338,509.5984 280.47425,509.12338 C 279.67206,508.10325 278.36157,507.09682 276.73353,506.37077 C 275.12223,505.65219 273.5078,505.33366 272.19878,505.4003 z "
       id="path3221" />
    <path
       id="path3223"
       d="M 237.77092,463.01747 L 240.10047,439.95085 C 240.45079,435.55761 243.22375,434.31276 249.37272,437.92032 C 257.01641,442.40484 320.34894,477.42085 346.57893,495.68292 C 350.96008,498.7332 355.7734,503.56195 355.61313,509.23422 C 355.49901,513.27356 354.3923,537.25166 352.11779,550.78023 C 350.65569,558.36178 351.96961,560.65781 344.40103,558.94005 C 333.52625,556.35302 313.34132,545.93316 313.34132,545.93316"
       style="fill:none;fill-rule:evenodd;stroke:#000000;stroke-width:0.56463766px;stroke-linecap:butt;stroke-linejoin:miter;stroke-opacity:1" />
    <path
       id="path3233"
       d="M 348.85358,559.42581 C 348.85358,559.42581 356.25185,559.04008 359.00096,557.22842 C 362.19254,555.12519 570.61501,442.38035 627.20384,407.59945 C 641.59362,398.75513 641.97979,399.25264 642.85412,381.5785 C 642.97208,379.1941 642.92451,374.82242 642.91286,374.13863"
       style="fill:none;fill-rule:evenodd;stroke:#000000;stroke-width:0.56463766px;stroke-linecap:round;stroke-linejoin:round;stroke-opacity:1" />
    <path
       id="text4119"
       d="m 371.85003,403.63891 c -2.16575,1.87979 -3.6705,3.47748 -4.51423,4.79307 -0.80271,1.29358 -0.8932,2.12574 -0.27144,2.4965 l 42.03556,25.07158 c 5.81788,3.47008 10.35814,6.92429 13.6208,10.36262 3.26258,3.43844 5.24072,6.76365 5.93442,9.97565 0.69359,3.21208 0.12155,6.27552 -1.71615,9.19031 -1.88221,2.88837 -5.0369,5.53075 -9.46408,7.92715 -4.22231,2.28548 -8.76059,4.00936 -13.61488,5.17161 -4.76894,1.16659 -9.7326,1.68067 -14.89101,1.54221 -5.16184,-0.1871 -10.43645,-1.07109 -15.82383,-2.65199 -5.38738,-1.58086 -10.79017,-3.98711 -16.20839,-7.21875 l -47.36495,-28.25023 c -0.53289,-0.31781 -1.95743,-0.30465 -4.27363,0.0395 -2.27509,0.32206 -5.19928,1.09645 -8.77261,2.32316 l -2.86454,-1.70852 27.67019,-14.97761 2.86454,1.70852 c -2.1657,1.87977 -3.67044,3.47745 -4.51422,4.79307 -0.80267,1.29356 -0.89316,2.12572 -0.27144,2.4965 l 44.03408,26.26358 c 4.26352,2.54295 8.53384,4.57689 12.81096,6.10185 4.31811,1.50282 8.55591,2.46801 12.71342,2.89557 4.19848,0.40542 8.25175,0.25781 12.15984,-0.44281 3.90803,-0.70058 7.62475,-2.00501 11.15017,-3.9133 2.91046,-1.57539 4.738,-3.42361 5.48266,-5.54466 0.70016,-2.14746 0.5651,-4.3734 -0.40516,-6.67779 -0.92936,-2.32652 -2.60341,-4.65418 -5.02214,-6.98301 -2.37781,-2.35092 -5.20992,-4.50648 -8.49635,-6.4667 l -44.76687,-26.70064 c -0.53293,-0.31778 -1.95748,-0.30462 -4.27364,0.0395 -2.27513,0.32209 -5.19932,1.09648 -8.77261,2.32317 l -2.86454,-1.70852 25.82552,-13.97911 2.86455,1.70852 0,0 m 114.37345,1.75639 c 1.99849,1.19204 3.79547,2.54365 5.39093,4.05485 1.59539,1.51128 2.90217,3.1535 3.92031,4.92667 1.01465,1.72456 1.67407,3.54035 1.97825,5.44735 0.30068,1.85838 0.0924,3.73961 -0.62487,5.6437 -0.67634,1.88195 -1.90606,3.76027 -3.68917,5.63495 -1.74218,1.85254 -4.15049,3.61088 -7.22492,5.27505 -1.3528,0.73225 -2.98398,1.43834 -4.89356,2.11828 -1.90962,0.67997 -3.99345,1.30264 -6.25148,1.86803 -2.21367,0.59189 -4.56054,1.10432 -7.04065,1.53726 -2.43913,0.41077 -4.8868,0.69985 -7.34301,0.86721 -0.4646,0.0494 -1.44506,-0.27889 -2.94138,-0.9848 -1.45532,-0.72809 -3.07122,-1.62191 -4.84768,-2.68147 -1.82087,-1.08602 -3.60246,-2.21859 -5.34478,-3.3977 -1.7423,-1.17908 -3.04903,-2.21497 -3.92021,-3.1077 l 2.85414,-1.16596 c 3.56313,1.0525 6.99642,1.77104 10.29987,2.15561 3.34444,0.36242 6.52149,0.46173 9.53112,0.29795 2.96522,-0.19024 5.74254,-0.63248 8.33198,-1.32674 2.58598,-0.74289 4.92429,-1.68016 7.01496,-2.81182 1.84464,-0.99849 3.28962,-2.23539 4.33493,-3.71072 1.04181,-1.52396 1.61053,-3.12027 1.70612,-4.78893 0.0955,-1.6686 -0.31791,-3.31435 -1.24033,-4.93726 -0.96689,-1.64933 -2.5162,-3.10974 -4.64792,-4.38123 -2.70913,-1.61578 -5.59415,-2.70688 -8.65504,-3.27332 -3.06093,-0.56636 -6.24823,-0.81171 -9.56189,-0.73605 -3.31369,0.0757 -6.71789,0.37729 -10.2126,0.90464 -3.49471,0.52743 -7.05091,1.08811 -10.66861,1.68203 -3.57668,0.5718 -7.17901,1.08165 -10.80698,1.52954 -3.62792,0.44796 -7.23196,0.63031 -10.81214,0.54704 -3.58011,-0.0832 -7.07829,-0.51396 -10.49455,-1.29231 -3.46057,-0.80476 -6.8119,-2.17399 -10.054,-4.10771 -1.3767,-0.82111 -2.68002,-1.80833 -3.90996,-2.96167 -1.22982,-1.15325 -2.23424,-2.42859 -3.01327,-3.82601 -0.77888,-1.39732 -1.26577,-2.877 -1.46064,-4.43904 -0.19815,-1.61062 0.0494,-3.23522 0.74277,-4.87381 0.69004,-1.68716 1.89074,-3.37291 3.60208,-5.05726 1.71147,-1.68424 4.06342,-3.33628 7.05585,-4.95615 1.84473,-0.99844 3.84485,-1.90424 6.00036,-2.71739 2.1966,-0.83521 4.3607,-1.5266 6.49232,-2.07418 2.17269,-0.56963 4.2924,-0.98434 6.35913,-1.24416 2.0668,-0.25967 3.91324,-0.32435 5.53931,-0.19405 0.55345,0.004 1.08639,0.32154 1.59882,0.95359 0.50906,0.58352 0.94296,1.30869 1.30168,2.17553 0.35534,0.8183 0.62868,1.68091 0.82001,2.58783 0.23237,0.88487 0.34685,1.60609 0.34343,2.16366 l -2.61331,0.95982 c -2.61336,-0.25277 -5.04396,-0.32663 -7.29182,-0.22159 -2.20681,0.083 -4.2548,0.30729 -6.14396,0.67292 -1.89249,0.31709 -3.58518,0.7533 -5.07807,1.30866 -1.5372,0.52899 -2.87972,1.1041 -4.02757,1.72533 -2.29555,1.24265 -3.90791,2.51963 -4.83709,3.83095 -0.92908,1.31144 -1.3492,2.59994 -1.26038,3.86551 0.0445,1.23919 0.48871,2.41356 1.3325,3.52311 0.84049,1.06098 1.88246,1.96229 3.12594,2.70393 2.08739,1.24502 4.50608,2.05799 7.25607,2.43892 2.70567,0.35453 5.6487,0.45419 8.82911,0.29898 3.17706,-0.2038 6.51292,-0.56942 10.00761,-1.09686 3.53572,-0.54953 7.17904,-1.08157 10.92995,-1.5961 3.74752,-0.56313 7.52406,-1.0157 11.32966,-1.35771 3.84658,-0.36412 7.64877,-0.4516 11.40658,-0.26246 3.79878,0.16704 7.5173,0.70592 11.15558,1.61662 3.59384,0.88431 7.03399,2.30652 10.32047,4.26664 m -24.2352,-49.71366 c -0.57383,0.31071 -1.14603,0.6457 -1.71657,1.00496 -0.57384,0.31071 -1.14603,0.64569 -1.71657,1.00496 l 31.90973,19.03215 2.09063,-1.13164 c 4.67321,-2.52951 7.95602,-4.86228 9.84846,-6.99831 1.88904,-2.18461 2.8557,-4.17319 2.90002,-5.96571 0.0443,-1.79243 -0.64412,-3.41565 -2.06533,-4.86967 -1.3802,-1.47609 -3.02515,-2.78367 -4.93487,-3.92275 -2.22056,-1.32437 -4.61363,-2.37858 -7.17924,-3.16264 -2.56556,-0.78392 -5.33609,-1.15381 -8.3116,-1.10965 -3.01986,0.0178 -6.26178,0.50941 -9.72576,1.47484 -3.4229,0.94337 -7.12253,2.49119 -11.0989,4.64346 m 43.68525,18.56999 c -1.96765,1.06512 -3.703,2.10551 -5.20608,3.12117 -1.46205,0.99356 -2.79773,1.96918 -4.00702,2.92689 l 35.37383,21.09827 c 0.35528,0.21192 0.87283,0.31074 1.55266,0.29644 0.96334,-0.21826 1.98476,-0.5185 3.06427,-0.90072 1.03505,-0.40868 2.06842,-0.84171 3.1001,-1.2991 1.03163,-0.45736 2.04109,-0.92797 3.02837,-1.41185 0.98721,-0.48384 1.89077,-0.94766 2.71065,-1.39146 2.95146,-1.59759 5.21628,-3.27828 6.7945,-5.04206 1.53373,-1.79022 2.40817,-3.57729 2.62334,-5.3612 0.25608,-1.80603 -0.1864,-3.56238 -1.32746,-5.26906 -1.18553,-1.73309 -3.0218,-3.34134 -5.50882,-4.82475 -2.44267,-1.45684 -5.36185,-2.73156 -8.75756,-3.82417 -3.35475,-1.1147 -6.91614,-1.83969 -10.68418,-2.17495 -3.77148,-0.38385 -7.61466,-0.27418 -11.52956,0.32902 -3.91831,0.55462 -7.66066,1.79713 -11.22704,3.72753 m 50.01759,-4.86686 c 3.77494,2.25159 6.49776,4.66843 8.16845,7.25054 1.66716,2.53351 2.31637,5.11274 1.94762,7.7377 -0.32788,2.60282 -1.63613,5.18052 -3.92478,7.73308 -2.28874,2.55261 -5.50323,4.94945 -9.64347,7.19052 -1.18883,0.6435 -2.70728,1.44016 -4.55534,2.38997 -1.84813,0.94985 -3.80042,1.93081 -5.85687,2.94289 -2.01209,1.0386 -4.06686,2.07503 -6.16431,3.10931 -2.05651,1.0121 -3.92852,1.92435 -5.61605,2.73674 -1.64314,0.83889 -2.97883,1.51135 -4.00706,2.0174 -1.02825,0.50605 -1.54237,0.75908 -1.54236,0.75908 l -4.48872,2.4297 -2.86455,-1.70853 c 2.16575,-1.87969 3.6722,-3.45304 4.51935,-4.72005 0.84372,-1.31567 0.9547,-2.15894 0.33294,-2.52979 l -72.34648,-43.15014 c -1.3356,0.97569 -2.62857,1.95346 -3.8789,2.93334 -1.25362,0.9313 -2.44411,1.8536 -3.57147,2.76691 l -4.68367,-2.1639 c 1.11026,-1.1567 2.48862,-2.43334 4.13506,-3.82992 1.64318,-1.44515 3.45538,-2.90609 5.43661,-4.38284 1.93696,-1.50311 4.00367,-2.97549 6.20012,-4.41716 2.15217,-1.46802 4.33504,-2.80116 6.54859,-3.99944 4.09934,-2.21883 8.23111,-3.9753 12.3953,-5.2694 4.11987,-1.32044 8.10479,-2.13844 11.95476,-2.45399 3.89102,-0.3376 7.5617,-0.17705 11.01205,0.48164 3.49137,0.63664 6.63601,1.78933 9.43392,3.45804 4.79647,2.86086 7.88142,5.89012 9.25488,9.08782 1.32906,3.17134 0.9449,6.18359 -1.15248,9.0368 3.15648,-1.10219 6.59481,-1.82644 10.31501,-2.17276 3.72018,-0.34622 7.48821,-0.31416 11.30411,0.0962 3.81244,0.36176 7.56685,1.10859 11.26323,2.24049 3.6519,1.10551 7.01008,2.57211 10.07451,4.39978"
       style="font-style:normal;font-weight:normal;font-size:139.8114624px;font-family:GentiumAlt;fill:none;fill-opacity:1;stroke:#000000;stroke-width:0.56463766;stroke-linecap:butt;stroke-linejoin:miter;stroke-miterlimit:4;stroke-opacity:1" />
    <path
       id="path3223-7"
       d="m 327.94262,394.52564 19.1112,-9.1701 c 6.60913,-2.09562 12.21031,0.97936 18.06483,4.58732 7.27765,4.48501 55.99851,36.94163 80.97243,55.20572 4.17135,3.05062 8.75418,7.87991 8.60157,13.5528 -0.10865,4.03979 -1.16236,28.02054 -3.32795,41.55061 -1.39209,7.58239 -0.58303,6.34314 -11.67826,12.58014 -12.29856,7.13541 -28.21528,15.65048 -28.21528,15.65048"
       style="display:inline;fill:none;fill-rule:evenodd;stroke:#000000;stroke-width:0.55098295px;stroke-linecap:butt;stroke-linejoin:miter;stroke-opacity:1" />
    <path
       transform="translate(148.98696,296.06243)"
       id="path3460"
       d="m 203.92561,252.52139 c 0.71972,-5.38819 1.53067,-10.89278 1.8021,-12.23241 0.48611,-2.39915 1.22037,-2.82949 48.93033,-28.67789 l 48.43681,-26.2422 0.21733,2.30237 c 0.30684,3.25064 -1.85971,19.24393 -2.9013,21.41712 -1.05165,2.1942 -1.90317,2.68802 -52.82063,30.63187 -23.98049,13.16065 -40.95252,22.05857 -42.46074,22.26087 l -2.51248,0.33699 1.30858,-9.79672 z"
       style="fill:#008000" />
    <path
       transform="translate(148.98696,296.06243)"
       id="path3462"
       d="m 194.08202,261.79946 c -4.44123,-1.19686 -9.2967,-3.14889 -20.22397,-8.13058 l -8.32154,-3.79375 8.49832,-4.51455 8.49832,-4.51456 0,-5.63423 0,-5.63424 8.03224,4.19651 c 4.41774,2.30807 9.36473,4.42162 10.99332,4.69677 l 2.96108,0.50027 -0.37954,2.93745 c -1.64662,12.74386 -2.75331,19.33182 -3.37399,20.08479 -0.90035,1.09223 -2.03381,1.05936 -6.68424,-0.19388 z"
       style="fill:#008000" />
    <path
       transform="translate(148.98696,296.06243)"
       id="path3464"
       d="m 191.49438,232.69242 -9.63293,-4.72896 -0.19449,-10.54754 -0.19447,-10.54755 -40.07363,-23.24007 -40.07364,-23.24007 -5.423937,2.50602 c -2.983168,1.3783 -5.594212,2.33574 -5.80232,2.12763 -0.499306,-0.4993 1.156316,-18.42241 2.015822,-21.82248 0.573304,-2.26791 0.954941,-2.65165 2.637074,-2.65165 2.766497,0 56.764441,30.80762 85.659971,48.87185 17.9304,11.20932 21.94508,14.32595 24.04697,18.66787 1.5174,3.13454 1.58035,3.85654 1.13064,12.96787 -0.7287,14.76373 -1.01166,16.36603 -2.89015,16.36603 -0.86459,0 -5.9068,-2.12803 -11.20491,-4.72895 z"
       style="fill:#008000" />
    <path
       transform="translate(148.98696,296.06243)"
       id="path3466"
       d="m 206.11755,232.29485 c 0.22706,-2.04177 0.62242,-7.60378 0.87858,-12.36002 0.45158,-8.38458 0.4087,-8.76432 -1.40926,-12.4801 -2.28055,-4.66128 -5.06094,-7.0115 -18.27998,-15.45179 -16.86474,-10.76804 -70.83905,-42.35731 -87.05427,-50.94981 l -3.43813,-1.82188 5.20589,-2.62251 c 2.86324,-1.44239 25.88877,-12.63269 51.16784,-24.86735 51.68878,-25.016527 48.8814,-24.023982 57.06694,-20.175908 4.64516,2.183718 31.15253,19.611588 58.93232,38.746388 24.61368,16.95397 31.0233,21.84772 33.57385,25.63366 l 2.25048,3.34055 -0.46058,11.99432 c -0.25332,6.59688 -0.52553,12.03519 -0.60493,12.08516 -1.89634,1.19339 -97.45797,52.6416 -97.77828,52.6416 -0.25481,0 -0.27752,-1.67054 -0.0505,-3.71231 l 1e-5,0 z m 49.62665,-49.32722 c 16.03302,-4.10055 26.53977,-13.53008 24.68013,-22.14974 -1.21303,-5.62256 -5.57102,-11.31762 -12.68481,-16.57661 -2.33346,-1.72504 -14.34543,-9.15632 -26.69329,-16.51394 -12.34785,-7.35763 -22.45064,-13.68692 -22.45064,-14.0651 0,-0.37817 1.15832,-1.9697 2.57404,-3.53674 1.41572,-1.56703 2.44987,-2.95674 2.2981,-3.08823 -0.15177,-0.1315 -1.00759,-0.61999 -1.90183,-1.08553 -1.45421,-0.75707 -2.91027,-0.15679 -13.78859,5.6845 -16.09103,8.64033 -15.21455,7.99475 -12.90709,9.50666 1.74207,1.14144 2.14299,1.148 5.9029,0.0966 8.32607,-2.32837 6.1252,-3.17599 32.02017,12.3319 25.43794,15.23419 29.87384,18.27435 32.77737,22.46414 4.30181,6.20754 3.68906,10.83471 -1.89603,14.3177 -5.04684,3.14734 -9.52918,4.34299 -17.50187,4.66859 -8.40641,0.34331 -14.12087,-0.69583 -21.97598,-3.99619 -4.37419,-1.83784 -50.66377,-28.83459 -52.8249,-30.80824 -0.72607,-0.66309 -0.3477,-1.4662 1.88671,-4.00463 2.64018,-2.9994 2.72036,-3.22177 1.44814,-4.01628 -0.74072,-0.4626 -1.77187,-0.84108 -2.29142,-0.84108 -0.87508,0 -27.01272,13.7192 -28.27901,14.84317 -0.31165,0.27662 0.23386,1.02746 1.21226,1.66853 1.66855,1.09327 2.15139,1.07126 7.78361,-0.35489 l 6.00471,-1.52048 23.54217,14.0461 c 32.68791,19.50278 35.44156,20.88442 46.52315,23.34286 6.50602,1.44336 20.1114,1.23165 26.542,-0.41302 z"
       style="fill:#008000" />
    <path
       transform="translate(148.98696,296.06243)"
       id="path3468"
       d="m 305.92635,171.48075 c 0.76953,-16.41957 0.61798,-16.65468 -20.22658,-31.3801 -25.0247,-17.67843 -66.92475,-45.73634 -73.20621,-49.021734 -2.28306,-1.194106 -5.47766,-2.404998 -7.09912,-2.690867 -2.893,-0.510043 -1.4464,-1.246707 77.39116,-39.410632 44.18659,-21.38998 84.3334,-40.7944899 89.21513,-43.1211322 8.86382,-4.224517 8.88606,-4.2306179 16.38011,-4.494315 13.27647,-0.46716587 22.29576,2.6186622 53.6605,18.3592222 22.93887,11.511997 30.69748,15.939234 38.41466,21.920294 9.74439,7.552213 12.46135,14.018492 12.48475,29.713322 l 0.0123,8.235256 -2.31354,2.03132 c -1.63482,1.435384 -160.8823,88.114386 -183.55632,99.910386 l -1.66855,0.86805 0.51174,-10.91907 -3e-5,0 z m 17.32105,-25.99514 c 12.11343,-2.57085 19.8252,-6.81501 23.6634,-13.02316 5.29694,-8.56759 0.34188,-19.02198 -11.86388,-25.03085 -9.9934,-4.91974 -23.49466,-5.65868 -45.23956,-2.47602 -7.11763,1.04176 -16.1957,1.90417 -20.30008,1.92849 -6.62359,0.0393 -7.86564,-0.16091 -11.51239,-1.85539 -4.20064,-1.95186 -6.50948,-5.059028 -5.63054,-7.577417 1.00786,-2.887775 5.77125,-6.301142 11.11239,-7.962949 1.1778,-0.366451 6.02622,-0.894221 10.77426,-1.172821 4.74805,-0.2786 8.82598,-0.699725 9.06209,-0.935828 0.60789,-0.607892 -0.8285,-5.570424 -2.16111,-7.466326 -0.94019,-1.337606 -1.76958,-1.59099 -5.20772,-1.59099 -11.23055,0 -26.89453,6.99663 -31.60722,14.117995 -2.18419,3.300527 -2.51644,8.414686 -0.76652,11.798656 1.3788,2.6663 5.95446,6.83504 9.46467,8.62296 9.33574,4.75512 19.19455,5.30363 39.80662,2.2147 23.81454,-3.56886 32.99807,-3.07532 40.22782,2.16188 7.84084,5.67987 5.48368,13.48473 -5.34486,17.69751 -5.70173,2.21823 -16.8743,2.67461 -25.17132,1.02821 -4.89834,-0.972 -6.34386,-1.03335 -7.66665,-0.32541 l -1.63015,0.87243 2.22756,1.85965 c 2.87738,2.40214 12.84888,8.30573 14.68171,8.69226 1.95483,0.41225 6.00988,-0.0768 13.08148,-1.57758 z m 65.71707,-34.27473 c 9.66578,-4.85693 19.18139,-10.10123 21.14579,-11.654009 14.1615,-11.194016 6.80779,-26.033988 -15.79863,-31.882017 -6.19546,-1.602698 -17.63876,-2.136855 -24.56427,-1.146624 l -4.05817,0.580249 0.42159,-2.10794 c 1.25582,-6.279091 -5.67607,-13.993274 -15.56048,-17.31655 -13.97915,-4.699988 -33.4298,0.338205 -50.96518,13.201227 -5.61486,4.118764 -11.69306,9.527949 -11.69306,10.40603 0,0.248937 1.26648,0.950112 2.81441,1.558153 l 2.81442,1.105533 3.5354,-2.814928 3.5354,-2.814928 36.05897,21.438868 c 19.83243,11.791376 36.0669,21.632716 36.07659,21.869646 0.01,0.23693 -1.24386,1.86389 -2.78566,3.61547 -2.77477,3.15231 -2.78736,3.19239 -1.23744,3.94079 0.86122,0.41585 1.81793,0.77762 2.12601,0.80394 0.3081,0.0263 8.46853,-3.92599 18.13431,-8.78291 z"
       style="fill:#ff0000" />
    <path
       transform="translate(148.98696,296.06243)"
       id="path3470"
       d="m 302.24393,208.32935 c 0.56942,-2.36576 1.84532,-11.99893 2.45457,-18.53223 l 0.51767,-5.5514 90.86323,-49.09524 c 49.97477,-27.00238 92.26185,-50.065724 93.97131,-51.251867 l 3.10808,-2.156624 -0.36766,7.659345 c -0.41944,8.73798 -1.40557,11.709006 -4.9067,14.783036 -4.65894,4.0906 -41.39829,25.54541 -94.63346,55.26341 -23.36672,13.04424 -83.94875,46.5681 -89.72155,49.6486 -1.58309,0.84477 -1.66209,0.79764 -1.28549,-0.76703 z"
       style="fill:#ff0000" />
    <path
       transform="translate(148.98696,296.06243)"
       id="path3472"
       d="m 326.47176,70.87391 c -8.14377,-4.866454 -14.95207,-8.993312 -15.12955,-9.170795 -0.59138,-0.591376 10.072,-5.246623 14.71593,-6.424449 6.92948,-1.757503 14.26603,-1.128908 20.0484,1.717744 4.74342,2.335175 9.66971,6.98891 9.66513,9.130384 -0.003,1.462145 -2.52164,5.765998 -4.15273,7.096561 -1.90114,1.550854 -9.46807,6.51374 -9.91962,6.50593 -0.23138,-0.004 -7.08378,-3.988921 -15.22756,-8.855375 z"
       style="fill:#ff0000" />
    <path
       transform="translate(148.98696,296.06243)"
       id="path3474"
       d="m 366.19682,94.61649 -17.50821,-10.49006 4.06726,-2.699697 c 2.237,-1.484833 5.97912,-3.503253 8.31583,-4.485378 3.82978,-1.609669 5.18949,-1.786436 13.79449,-1.793335 8.65256,-0.0069 10.09318,0.180194 15.39323,1.999507 10.06694,3.455615 15.91805,8.783711 14.75124,13.43266 -0.88641,3.531732 -5.24778,7.410089 -12.03525,10.702353 -3.54307,1.71857 -7.07835,3.28202 -7.85617,3.47434 -0.96111,0.23764 -7.02375,-3.01129 -18.92242,-10.14039 z"
       style="fill:#ff0000" />
  </g>
  <path
     style="fill:#c0c0c0;fill-opacity:1"
     d="M 41.755861,234.47376 C 19.919888,220.36897 2.0046147,208.77921 1.944143,208.71874 c -0.1372253,-0.13723 98.791327,-46.5998 99.220847,-46.59985 0.23256,-3e-5 78.49922,45.22385 78.90321,45.59169 0.0621,0.0565 -97.850435,52.12397 -98.417732,52.33613 -0.10606,0.0397 -18.058635,-11.46816 -39.894607,-25.57295 z m 74.111439,-5.35259 c 3.09687,-1.57143 5.87701,-3.07145 6.1781,-3.33338 0.65251,-0.56766 0.71619,-1.72668 0.12197,-2.21984 -0.234,-0.19421 -3.85482,-2.32295 -8.04627,-4.73053 -9.75982,-5.60609 -8.81535,-5.5192 -16.521582,-1.5199 -6.105025,3.16831 -6.601025,3.50596 -6.601025,4.49362 0,0.37679 0.246342,0.89959 0.547426,1.16177 0.503073,0.43808 6.560648,3.99968 6.802651,3.99968 0.05819,0 1.208367,0.65255 2.55596,1.4501 7.71699,4.56719 7.37043,4.55102 14.96277,0.69848 z m 15.28576,-13.74544 c 1.42985,-1.12473 0.94505,-3.40977 -1.08603,-5.11882 -3.28311,-2.76255 -8.78424,-3.67582 -10.36775,-1.7212 -2.27093,2.80316 3.05914,7.46119 8.56024,7.48092 1.62735,0.006 2.24535,-0.13104 2.89354,-0.6409 z m -55.013288,-12.82931 5.630673,-2.94516 0,-1.0929 0,-1.09291 -7.802448,-4.48838 c -10.276679,-5.9117 -9.087453,-5.79477 -17.075832,-1.67898 -8.304911,4.27887 -8.345043,4.43377 -2.056003,7.93544 1.910231,1.0636 4.951198,2.77964 6.757705,3.81344 1.806508,1.0338 3.636477,2.07205 4.066597,2.30723 0.51405,0.28106 1.478809,0.38644 2.815337,0.30748 1.854618,-0.10955 2.52811,-0.37892 7.663971,-3.06526 z m 12.437363,-12.8161 c 2.507742,-0.69642 2.722883,-2.98944 0.491898,-5.24273 -1.882121,-1.90094 -4.279699,-2.94634 -7.14218,-3.11417 -2.059259,-0.12074 -2.451295,-0.0543 -3.206355,0.54363 -2.553855,2.0223 0.626706,6.27414 5.716459,7.64188 2.10102,0.56459 2.643441,0.58705 4.140178,0.17139 z"
     id="path4957"
     inkscape:connector-curvature="0" />
  <path
     style="fill:#c0c0c0;fill-opacity:1"
     d="m 82.431751,282.4145 c -0.108696,-5.97616 -0.276878,-13.1884 -0.373738,-16.0272 l -0.176109,-5.16145 44.817066,-23.77395 c 24.64939,-13.07568 46.90196,-24.87268 49.45017,-26.21556 l 4.63311,-2.44161 -0.0811,15.69692 -0.0811,15.69691 -46.29665,25.07386 c -25.46315,13.79062 -47.511049,25.73626 -48.995326,26.54585 l -2.698685,1.47198 -0.197628,-10.86575 z"
     id="path4959"
     inkscape:connector-curvature="0" />
  <path
     style="fill:#c0c0c0;fill-opacity:1"
     d="M 73.747756,290.37456 C 58.33438,280.28884 1.6376948,242.80198 1.1423365,242.36911 0.63419661,241.92508 0.59648787,240.77737 0.61689631,226.37668 c 0.0120925,-8.53274 0.12098064,-15.76461 0.24197373,-16.07082 0.18828836,-0.47652 1.32905716,0.15453 7.91678596,4.37942 l 7.696799,4.93615 -5.642813,2.8726 c -3.1035475,1.57993 -6.0073525,3.23693 -6.4529008,3.68222 l -0.8100871,0.80962 -0.1060225,6.7913 c -0.065535,4.19788 0.020568,7.21383 0.2254747,7.89774 0.5072317,1.69299 2.0135568,2.89513 10.9854857,8.76705 11.767087,7.7013 50.692036,33.65687 55.441871,36.96922 4.320522,3.01297 5.892866,3.82267 6.839645,3.52218 1.325863,-0.42081 1.53407,-1.32518 1.742974,-7.57079 0.190508,-5.69556 0.170553,-5.99938 -0.461161,-7.02152 -0.36316,-0.5876 -1.194282,-1.49182 -1.846939,-2.00939 -0.652661,-0.51756 -15.192954,-9.92633 -32.311764,-20.90839 -17.11881,-10.98205 -31.371451,-20.18103 -31.672536,-20.44217 -0.301084,-0.26114 -0.547426,-0.63402 -0.547426,-0.82862 0,-0.19461 2.820766,-1.9411 6.268368,-3.8811 l 6.268368,-3.52728 4.289144,2.73555 c 2.359029,1.50455 14.424355,9.27833 26.811836,17.27507 12.38748,7.99673 23.191334,14.95998 24.008563,15.47388 l 1.485873,0.93436 0.0178,4.88008 c 0.0098,2.68404 0.133287,9.94769 0.274429,16.14143 0.15333,6.72856 0.141734,11.48169 -0.02881,11.80877 -0.156986,0.30108 -0.477096,0.54743 -0.711348,0.54743 -0.234252,0 -3.290978,-1.87476 -6.792725,-4.16611 l 3e-6,0 z m 4.310068,-25.35377 c 0.751579,-0.75158 1.366508,-1.64951 1.366508,-1.99539 0,-0.41526 -0.770405,-1.20848 -2.26791,-2.33507 -2.766416,-2.08121 -3.496858,-2.48517 -4.085329,-2.25935 -0.837519,0.32139 -2.45137,2.62365 -2.348156,3.34981 0.09736,0.68495 4.889085,4.60651 5.628668,4.60651 0.186841,0 0.95464,-0.61493 1.706219,-1.36651 z M 31.995152,234.3493 c 0.622894,-0.76016 1.132535,-1.59449 1.132535,-1.85406 0,-0.55892 -4.527643,-4.18959 -5.572827,-4.46879 -0.808581,-0.216 -2.278269,0.95827 -3.051483,2.43811 -0.540135,1.03375 -0.24642,1.43642 2.680822,3.67531 2.610429,1.99657 3.321175,2.02751 4.810953,0.20943 z"
     id="path4961"
     inkscape:connector-curvature="0" />
  <path
     style="fill:#c0c0c0;fill-opacity:1"
     d="m 74.888512,289.43543 c -0.688194,-0.39506 -3.151613,-2.04012 -5.474266,-3.65569 C 67.091594,284.16417 52.311077,274.29616 36.568654,263.85082 20.826231,253.40549 7.3908595,244.45949 6.712273,243.97083 c -2.3905394,-1.72148 -2.5092941,-2.18864 -2.4093375,-9.47778 0.056443,-4.11595 0.221052,-6.70671 0.4579547,-7.20764 0.2731205,-0.57753 1.9755199,-1.59708 6.5097188,-3.89864 l 6.139879,-3.1166 2.765785,1.75843 c 1.521181,0.96714 2.811294,1.89496 2.866916,2.06182 0.05562,0.16687 -2.121958,1.54309 -4.839067,3.05828 -7.490362,4.17697 -7.340134,4.06872 -7.226757,5.20749 0.109426,1.09909 -3.6250762,-1.38507 40.108762,26.67995 12.868975,8.25833 24.036236,15.57193 24.816137,16.25246 2.136706,1.86448 2.241612,2.31379 1.95009,8.35243 -0.244136,5.05712 -0.544161,6.52427 -1.332567,6.51645 -0.209008,-0.002 -0.943082,-0.32699 -1.631275,-0.72205 z"
     id="path4963"
     inkscape:connector-curvature="0" />
  <path
     style="fill:#c0c0c0;fill-opacity:1"
     d="m 27.809829,233.50467 c -3.116054,-2.39797 -3.017801,-2.21312 -1.870735,-3.51955 0.548405,-0.6246 1.142751,-1.13564 1.320768,-1.13564 0.33966,0 4.92938,3.42077 4.92938,3.67393 0,0.2708 -1.927343,2.58256 -2.137788,2.56418 -0.114579,-0.01 -1.12331,-0.72232 -2.241625,-1.58292 z"
     id="path4965"
     inkscape:connector-curvature="0" />
  <path
     style="fill:#c0c0c0;fill-opacity:1"
     d="m 75.044919,264.6077 c -0.602169,-0.45883 -1.692545,-1.31083 -2.423057,-1.89334 l -1.328205,-1.05911 0.98954,-1.23135 c 0.544247,-0.67724 1.104621,-1.23135 1.245277,-1.23135 0.35293,0 4.774271,3.42911 4.914309,3.81145 0.108309,0.29571 -1.769776,2.44859 -2.129763,2.44139 -0.09529,-0.002 -0.665931,-0.37887 -1.268101,-0.83769 z"
     id="path4967"
     inkscape:connector-curvature="0" />
  <path
     style="fill:#c0c0c0;fill-opacity:1"
     d="m 54.759806,198.06742 c -3.565777,-2.05645 -3.76572,-2.23542 -3.162618,-2.83079 0.250699,-0.24749 2.933197,-1.72454 5.961106,-3.28233 6.00327,-3.08854 6.707912,-3.26024 8.941853,-2.17881 l 1.350024,0.65354 0,2.34063 0,2.34064 -4.823544,2.32369 c -2.652949,1.27802 -4.94041,2.32278 -5.083247,2.32168 -0.142836,-0.001 -1.575444,-0.76081 -3.183574,-1.68825 z"
     id="path4969"
     inkscape:connector-curvature="0" />
  <path
     style="fill:#c0c0c0;fill-opacity:1"
     d="m 73.246232,197.8358 -4.457616,-2.80851 0,-1.99886 0,-1.99887 6.099281,3.50382 c 4.22717,2.42835 6.099469,3.67022 6.099896,4.04596 3.75e-4,0.33619 -0.589635,0.84126 -1.553062,1.32947 -0.854522,0.43302 -1.593548,0.77565 -1.64228,0.7614 -0.04873,-0.0142 -2.09453,-1.28973 -4.546219,-2.83441 z"
     id="path4971"
     inkscape:connector-curvature="0" />
  <path
     style="fill:#c0c0c0;fill-opacity:1"
     d="m 62.765324,202.76763 -3.989994,-2.28905 3.833586,-1.81204 c 2.108473,-0.99662 4.281556,-2.02496 4.829075,-2.28519 0.99196,-0.47148 1.008593,-0.46503 4.692227,1.81854 2.033207,1.26043 3.960434,2.46869 4.282728,2.68503 0.52335,0.3513 0.181119,0.5963 -3.201545,2.29198 -5.099106,2.5561 -5.290286,2.54861 -10.446077,-0.40927 z"
     id="path4973"
     inkscape:connector-curvature="0" />
  <path
     style="fill:#c0c0c0;fill-opacity:1"
     d="m 84.518852,188.66814 c -1.601172,-0.50041 -3.794003,-1.75577 -4.575669,-2.6195 -0.845303,-0.93405 -0.421845,-1.84196 1.067182,-2.28808 2.784936,-0.83439 9.194386,2.17582 8.602642,4.04025 -0.400832,1.2629 -2.619628,1.64068 -5.094155,0.86733 z"
     id="path4975"
     inkscape:connector-curvature="0" />
  <path
     style="fill:#c0c0c0;fill-opacity:1"
     d="m 126.57994,215.06837 c -1.65968,-0.40466 -3.99794,-1.64297 -5.00617,-2.6512 -0.99459,-0.99459 -1.03143,-1.17987 -0.36674,-1.84456 1.53355,-1.53355 6.00464,-0.65937 8.69094,1.69924 1.24038,1.08906 1.45706,1.9969 0.58768,2.46218 -0.91408,0.4892 -2.65821,0.6385 -3.90571,0.33434 z"
     id="path4977"
     inkscape:connector-curvature="0" />
  <path
     style="fill:#c0c0c0;fill-opacity:1"
     d="m 95.337714,224.40358 c -2.20179,-1.26385 -3.24206,-1.89114 -3.383146,-2.04008 -0.373536,-0.39433 -0.340609,-0.8999 0.08078,-1.24032 0.375474,-0.30332 10.992882,-5.70334 11.486782,-5.84218 0.5423,-0.15244 1.39931,-0.20208 1.9922,-0.11539 0.6694,0.0979 1.17952,0.30647 2.21048,0.90385 l 0.91242,0.5287 0.0144,2.34255 0.0144,2.34254 -5.03994,2.45876 c -2.77197,1.35232 -5.055476,2.46502 -5.074461,2.47267 -0.01899,0.008 -1.465256,-0.80735 -3.213935,-1.8111 z"
     id="path4983"
     inkscape:connector-curvature="0" />
  <path
     style="fill:#c0c0c0;fill-opacity:1"
     d="m 107.7801,231.39584 c -0.19769,-0.0424 -0.47141,-0.11817 -0.60828,-0.16831 -0.21463,-0.0786 -8.091474,-4.56273 -8.058183,-4.58734 0.0067,-0.005 2.221683,-1.08485 4.922083,-2.3997 4.574,-2.22713 4.91818,-2.38532 5.03215,-2.31292 0.0673,0.0427 2.0571,1.27905 4.4218,2.74735 2.3647,1.46829 4.29945,2.68877 4.29945,2.71216 0,0.044 -6.87858,3.58362 -7.39464,3.80511 -0.65869,0.28272 -1.82331,0.37343 -2.61438,0.20365 z"
     id="path4985"
     inkscape:connector-curvature="0" />
  <path
     style="fill:#c0c0c0;fill-opacity:1"
     d="m 113.80763,224.13118 -4.50682,-2.80778 -0.0145,-2.17107 c -0.0115,-1.73043 -3.1e-4,-2.16522 0.0553,-2.14221 0.31808,0.13158 11.95987,6.87806 12.14562,7.03844 0.45243,0.39068 0.49599,0.78882 0.13056,1.1933 -0.16049,0.17765 -0.50525,0.3752 -1.68308,0.96443 -0.81469,0.40756 -1.51253,0.73914 -1.55077,0.73685 -0.0382,-0.002 -2.09758,-1.26767 -4.57634,-2.81196 z"
     id="path4987"
     inkscape:connector-curvature="0" />
  <path
     style="fill:#c0c0c0;fill-opacity:1"
     d="m 129.38948,210.82752 c -0.69616,-0.47306 -2.15619,-1.11834 -3.1789,-1.40495 -1.07319,-0.30078 -1.50512,-0.36135 -2.58747,-0.36289 -1.16739,-0.002 -1.61556,0.0797 -2.2831,0.41449 -0.50379,0.25266 -0.82591,0.56296 -1.08203,1.04231 l -0.18657,0.34921 -0.0983,-0.3631 c -0.36598,-1.35205 0.57696,-2.23848 2.48872,-2.33957 1.84993,-0.0978 4.2056,0.63409 6.08283,1.88994 0.60391,0.40402 1.21288,0.90587 1.10498,0.91062 -0.031,0.001 -0.14804,-0.0599 -0.26017,-0.13606 z"
     id="path4989"
     inkscape:connector-curvature="0" />
  <path
     style="fill:#c0c0c0;fill-opacity:1"
     d="m 87.955617,184.6051 c -0.212899,-0.13735 -0.710585,-0.40685 -1.105969,-0.59889 -2.941257,-1.42855 -6.107845,-1.56475 -7.489913,-0.32215 -0.148988,0.13396 -0.347674,0.39728 -0.45928,0.60869 l -0.196698,0.37261 -0.08826,-0.29721 c -0.264778,-0.8916 0.03919,-1.60725 0.859156,-2.02275 0.523576,-0.26532 1.050144,-0.36872 1.900452,-0.37319 1.05464,-0.006 1.941509,0.15505 3.137758,0.56822 1.375574,0.4751 2.723018,1.23808 3.663949,2.07468 0.350972,0.31206 0.272514,0.30851 -0.221194,-0.01 z"
     id="path4991"
     inkscape:connector-curvature="0" />
  <path
     style="fill:#c0c0c0;fill-opacity:1"
     d="m 370.2281,118.29175 c -0.56,-0.3461 -0.24381,-1.04751 1.13994,-2.52883 1.72364,-1.84517 3.04691,-4.7231 2.44642,-5.32068 -0.43955,-0.4374 -71.85717,-42.915598 -72.69097,-43.235557 -0.4598,-0.176441 -2.45918,0.939626 -4.44306,2.480147 -3.18487,2.473099 -3.78335,2.720629 -5.11312,2.114749 -0.82832,-0.37741 -1.50604,-0.899693 -1.50604,-1.160628 0,-1.129977 12.90617,-10.770181 20.09746,-15.011704 12.06753,-7.117601 28.34221,-10.176135 38.39897,-7.216398 6.72637,1.979591 13.04705,6.545474 15.37326,11.105206 1.53967,3.018002 1.5199,4.661812 -0.0922,7.669662 l -1.29816,2.42208 1.45457,-0.395733 c 9.98708,-2.717115 20.13298,-2.865997 29.60793,-0.434469 13.75545,3.530025 23.94615,12.373795 22.58975,19.604015 -0.64399,3.432743 -3.82171,7.73077 -7.97771,10.79024 -5.02857,3.70182 -36.94265,19.76336 -37.98703,19.1179 z m 23.39289,-15.67212 c 9.48867,-4.592873 13.89616,-9.988738 12.54768,-15.361492 -0.66897,-2.66537 -4.76086,-6.549612 -9.31669,-8.843891 -12.30054,-6.194454 -28.19627,-6.687369 -39.35601,-1.220399 -4.6026,2.25474 -10.50841,6.255821 -10.49516,7.110285 0.004,0.254729 8.09805,5.314858 17.98687,11.24473 20.74858,12.441957 18.62174,11.916747 28.63331,7.070767 z M 346.45555,78.543649 c 8.55737,-5.009287 12.06941,-10.641886 9.54672,-15.310984 -1.49951,-2.775371 -6.30514,-6.425394 -10.83496,-8.229506 -4.89306,-1.948776 -14.08758,-2.358017 -20.06534,-0.893093 -4.67361,1.145328 -15.86476,6.452538 -15.83375,7.508889 0.0153,0.521298 31.10858,19.574243 32.10782,19.674618 0.17924,0.01801 2.46502,-1.21946 5.07951,-2.749924 z"
     id="path4993"
     inkscape:connector-curvature="0" />
  <path
     style="fill:#c0c0c0;fill-opacity:1"
     d="m 308.84569,145.07788 c -4.3661,-1.95477 -13.58514,-8.28995 -12.42866,-8.54079 0.57085,-0.12382 3.34691,0.21288 6.16901,0.74823 6.4901,1.23115 16.62643,1.2358 21.82667,0.01 5.43557,-1.28125 11.08608,-4.3901 12.94115,-7.12009 1.94205,-2.85798 2.05612,-7.58676 0.25431,-10.54201 -1.46836,-2.40831 -5.77573,-5.28467 -10.25621,-6.84885 -5.10565,-1.78243 -19.28745,-1.47293 -31.97283,0.69777 -13.21462,2.26125 -25.92379,2.80587 -32.31195,1.38464 -11.79217,-2.62351 -19.30653,-8.91304 -19.30022,-16.154314 0.006,-6.561033 7.81186,-13.012132 20.64346,-17.060046 6.29261,-1.985091 13.88519,-2.774764 15.30994,-1.592322 0.52288,0.433953 1.28472,1.903871 1.69297,3.266485 0.98143,3.275714 0.38939,3.608672 -6.43821,3.62081 -9.46093,0.01682 -17.04443,2.240587 -21.23488,6.226859 -2.17236,2.066523 -2.46805,2.690956 -2.46805,5.212011 0,2.140477 0.39422,3.332717 1.56017,4.718367 4.68369,5.56625 13.54759,6.35974 35.66483,3.19269 27.49173,-3.93665 40.5352,-2.49881 51.34086,5.65954 3.64229,2.74996 6.84989,7.20239 7.84139,10.88456 0.99824,3.70716 -0.24288,7.32421 -3.8779,11.3015 -4.85493,5.31206 -14.14582,9.3459 -25.27409,10.97327 -2.75278,0.40256 -5.47128,0.82099 -6.04111,0.92985 -0.56985,0.10886 -2.20813,-0.32682 -3.64065,-0.96817 z"
     id="path4995"
     inkscape:connector-curvature="0" />
  <path
     style="fill:#c0c0c0;fill-opacity:1"
     d="m 233.12891,182.87388 c -4.3078,-0.71546 -11.58143,-2.87622 -16.00788,-4.75543 -2.72291,-1.15599 -16.5805,-9.04891 -30.79466,-17.53982 -19.78046,-11.81598 -26.31238,-15.42956 -27.84055,-15.40196 -1.09815,0.0198 -3.96736,0.55303 -6.37604,1.18489 -8.24605,2.16313 -6.5465,0.5083 6.95191,-6.76899 7.14763,-3.85344 13.36771,-6.8635 13.82241,-6.68901 0.58978,0.22632 0.18836,1.15354 -1.40065,3.23525 -1.22505,1.6049 -2.14381,3.3444 -2.04169,3.86554 0.10212,0.52115 11.36995,7.61857 25.03963,15.77206 31.02707,18.50657 36.13391,20.61711 49.93383,20.63646 9.34412,0.0131 17.39584,-2.3327 22.3295,-6.50554 5.48155,-4.63623 3.1237,-13.35748 -5.47057,-20.23458 -1.95806,-1.56683 -14.37053,-9.29862 -27.58324,-17.18175 -23.81418,-14.20829 -24.04763,-14.32956 -26.83848,-13.94259 -1.54843,0.2147 -4.44915,0.83718 -6.44604,1.38329 -7.04692,1.92717 -4.92105,-0.0437 7.05828,-6.54376 10.48105,-5.68705 13.77726,-7.14729 13.77726,-6.10338 0,0.16907 -0.98537,1.5983 -2.1897,3.17607 -2.32278,3.04299 -2.43393,3.32761 -1.71091,4.38082 0.25281,0.36826 10.88592,6.88377 23.62916,14.47892 12.74323,7.59515 25.13147,15.3725 27.52941,17.28301 6.86437,5.46901 10.84858,11.46034 10.88446,16.36769 0.0576,7.87134 -11.39407,16.09272 -27.05821,19.42571 -3.91625,0.8333 -15.34274,1.11728 -19.19723,0.4771 z"
     id="path4997"
     inkscape:connector-curvature="0"
     inkscape:export-xdpi="348.35999"
     inkscape:export-ydpi="348.35999" />
</svg>
